#!OML:ASF H:\Terrain\Patient Classification 1\Walking\steve\steve.ASF
:FULLY-SPECIFIED
:DEGREES
31
root 9.10098 15.1963 -26.5872 11.6221 -11.6387 -5.76899
lowerback -1.71718 5.5056 1.608
upperback -3.33668 7.35202 0.158218
thorax -2.29274 3.64233 -0.741019
lowerneck -8.66846 -1.94493 -3.19066
upperneck 11.6996 -3.15346 7.41026
head 5.10683 -1.20488 2.61092
rclavicle -1.81391e-015 6.36111e-015
rhumerus -33.7644 22.6971 -91.9517
rradius 75.1967
rwrist -5.49005
rhand -27.9471 -38.9172
rfingers 7.12502
rthumb -1.33483 -68.8928
lclavicle -1.81391e-015 6.36111e-015
lhumerus -59.8181 18.3221 51.6613
lradius 5.79818
lwrist -22.6694
lhand -22.0149 -10.2973
lfingers 7.12502
lthumb 4.39439 19.6371
rfemur 14.4164 5.30652 23.6681
rtibia 18.3107
rfoot 9.50544 11.7854
rtoes 7.30489
lfemur -45.423 3.40122 -9.96504
ltibia 26.2211
lfoot -11.488 10.6445
ltoes -9.21809
32
root 9.11609 15.1817 -26.269 11.6337 -10.8487 -4.84389
lowerback -1.86651 5.238 0.645064
upperback -3.44455 6.98789 -0.248818
thorax -2.39084 3.477 -0.624911
lowerneck -8.96107 -2.09582 -3.32503
upperneck 11.66 -3.39256 7.85806
head 5.16806 -1.29312 2.75428
rclavicle -2.95692e-014 -9.93923e-015
rhumerus -34.7445 21.4326 -92.3592
rradius 75.3294
rwrist -6.49392
rhand -28.1081 -39.356
rfingers 7.12502
rthumb -1.49031 -69.3305
lclavicle -2.95692e-014 -9.93923e-015
lhumerus -59.3843 18.4099 51.2077
lradius 5.22875
lwrist -23.4778
lhand -21.9999 -10.6462
lfingers 7.12502
lthumb 4.40891 19.2879
rfemur 13.7698 5.55862 23.1123
rtibia 20.7635
rfoot 12.0997 8.79232
rtoes 5.12443
lfemur -46.5269 3.25864 -11.4343
ltibia 28.7448
lfoot -9.33136 9.2311
ltoes -10.2477
33
root 9.11846 15.1528 -25.9622 11.543 -10.2418 -3.94188
lowerback -1.90247 5.012 -0.397905
upperback -3.46684 6.67986 -0.685067
thorax -2.46401 3.34198 -0.499271
lowerneck -9.56467 -2.2235 -3.3477
upperneck 12.0187 -3.63158 8.24837
head 5.40454 -1.36428 2.86096
rclavicle 7.10655e-014 7.95139e-016
rhumerus -36.0027 20.0412 -93.0061
rradius 75.8596
rwrist -7.98621
rhand -28.0237 -40.7453
rfingers 7.12502
rthumb -1.40881 -70.7204
lclavicle 7.10655e-014 7.95139e-016
lhumerus -58.8232 18.5586 50.6868
lradius 4.83791
lwrist -24.4405
lhand -21.9639 -9.8507
lfingers 7.12502
lthumb 4.44361 20.0827
rfemur 12.9002 5.90496 22.5315
rtibia 23.6939
rfoot 14.8679 5.31249
rtoes 8.41233
lfemur -47.2689 3.53896 -13.1076
ltibia 31.1783
lfoot -7.75945 8.14404
ltoes -12.4394
34
root 9.11754 15.1407 -25.6565 11.3809 -9.75785 -3.17926
lowerback -1.85988 4.88235 -1.31765
upperback -3.47392 6.49923 -1.1006
thorax -2.55026 3.26809 -0.425218
lowerneck -10.2059 -2.45189 -2.99614
upperneck 12.4694 -4.01695 8.21734
head 5.67206 -1.51332 2.75973
rclavicle 6.25178e-014 2.8625e-014
rhumerus -37.6887 18.2931 -93.6289
rradius 76.6325
rwrist -9.18378
rhand -26.5862 -39.8744
rfingers 7.12502
rthumb -0.0204164 -69.8542
lclavicle 6.25178e-014 2.8625e-014
lhumerus -58.1316 18.5908 50.2339
lradius 4.5788
lwrist -25.5069
lhand -21.8935 -8.62849
lfingers 7.12502
lthumb 4.51165 21.3035
rfemur 11.7274 6.11399 22.0097
rtibia 27.0374
rfoot 17.3575 2.95605
rtoes 9.34726
lfemur -47.6488 4.05267 -14.7201
ltibia 33.4442
lfoot -6.54391 7.37287
ltoes -14.3668
35
root 9.12767 15.1441 -25.3542 11.2505 -9.17152 -2.4303
lowerback -1.70623 4.69843 -2.178
upperback -3.52102 6.2435 -1.36711
thorax -2.74745 3.15828 -0.243564
lowerneck -10.8771 -2.68146 -2.68921
upperneck 12.8625 -4.34711 7.843
head 5.91575 -1.662 2.55816
rclavicle -2.15184e-014 7.95139e-015
rhumerus -39.1875 16.8981 -93.9479
rradius 76.593
rwrist -10.5558
rhand -29.142 -37.3157
rfingers 7.12502
rthumb -2.48886 -67.281
lclavicle -2.15184e-014 7.95139e-015
lhumerus -57.6376 18.8076 49.9701
lradius 4.40224
lwrist -26.6844
lhand -22.2062 -8.72307
lfingers 7.12502
lthumb 4.20964 21.2151
rfemur 10.2887 6.07727 21.452
rtibia 30.5612
rfoot 19.7285 1.41756
rtoes 6.72816
lfemur -47.8789 4.41472 -16.323
ltibia 35.5232
lfoot -5.73498 6.26164
ltoes -16.0494
36
root 9.14007 15.1526 -25.0637 11.0817 -8.63099 -2.01603
lowerback -1.30313 4.51317 -2.63636
upperback -3.50581 5.97825 -1.50977
thorax -2.9867 3.03598 -0.17096
lowerneck -11.4883 -2.75679 -2.67211
upperneck 13.0337 -4.43125 7.65306
head 6.07474 -1.69876 2.48249
rclavicle -4.96962e-017 1.27222e-014
rhumerus -39.8743 15.9693 -94.1681
rradius 75.1614
rwrist -12.3477
rhand -29.3026 -37.694
rfingers 7.12502
rthumb -2.64394 -67.6573
lclavicle -4.96962e-017 1.27222e-014
lhumerus -57.351 19.267 49.7393
lradius 4.87617
lwrist -27.9041
lhand -22.4901 -8.69359
lfingers 7.12502
lthumb 3.93547 21.2498
rfemur 8.81443 6.08398 21.2571
rtibia 34.2041
rfoot 21.7987 -0.208934
rtoes 6.31705
lfemur -47.8684 4.75208 -17.4334
ltibia 37.3469
lfoot -5.63911 4.5859
ltoes -16.5561
37
root 9.15076 15.1627 -24.7801 10.7238 -8.28085 -1.75104
lowerback -0.622748 4.41637 -2.8725
upperback -3.45947 5.81794 -1.65914
thorax -3.32656 2.96055 -0.248037
lowerneck -12.3129 -2.88364 -2.35174
upperneck 13.5303 -4.59858 7.07
head 6.36171 -1.78048 2.22147
rclavicle -6.11263e-014 1.03368e-014
rhumerus -40.5249 14.8975 -94.4672
rradius 73.6724
rwrist -13.9641
rhand -28.0848 -39.6523
rfingers 7.12502
rthumb -1.46784 -69.627
lclavicle -6.11263e-014 1.03368e-014
lhumerus -56.9229 19.747 49.5117
lradius 5.53873
lwrist -28.8543
lhand -21.9764 -8.43183
lfingers 7.12502
lthumb 4.43153 21.5018
rfemur 7.52605 6.20791 21.2155
rtibia 37.8737
rfoot 23.4552 -2.0019
rtoes 7.1263
lfemur -47.4211 5.21685 -18.3215
ltibia 38.8496
lfoot -5.88059 2.8751
ltoes -15.498
38
root 9.16287 15.178 -24.4986 10.2458 -8.15724 -1.30136
lowerback 0.0149168 4.39691 -3.22717
upperback -3.36662 5.75462 -1.87063
thorax -3.60255 2.93531 -0.318782
lowerneck -8.62038 -2.60356 -4.93415
upperneck 9.53518 -4.05006 10.5654
head 4.58625 -1.56718 3.81576
rclavicle -6.45056e-014 -3.97569e-015
rhumerus -41.5244 13.6913 -94.7892
rradius 72.6875
rwrist -15.3386
rhand -26.2622 -39.9386
rfingers 7.12502
rthumb 0.292545 -69.9181
lclavicle -6.45056e-014 -3.97569e-015
lhumerus -55.9611 20.3592 49.4071
lradius 5.32461
lwrist -29.5314
lhand -21.4272 -8.33222
lfingers 7.12502
lthumb 4.96183 21.5897
rfemur 6.19557 6.38728 20.9567
rtibia 41.5378
rfoot 24.3671 -4.53772
rtoes 8.1223
lfemur -46.5492 5.72074 -19.3619
ltibia 39.9971
lfoot -6.36092 1.69226
ltoes -14.1795
39
root 9.17806 15.2072 -24.2199 9.73694 -8.20112 -0.971692
lowerback 0.535153 4.41407 -3.37726
upperback -3.15943 5.74875 -2.08226
thorax -3.67412 2.93086 -0.486145
lowerneck -8.89987 -2.58084 -4.43934
upperneck 9.49931 -4.00181 9.93041
head 4.59624 -1.55484 3.53483
rclavicle 1.43324e-013 -2.3059e-014
rhumerus -42.3519 12.6262 -95.123
rradius 71.496
rwrist -16.7967
rhand -39.6767 -17.6099
rfingers 7.12502
rthumb -12.6561 -47.2065
lclavicle 1.43324e-013 -2.3059e-014
lhumerus -54.8181 21.1586 49.3145
lradius 4.97675
lwrist -30.2736
lhand -21.4609 -8.49932
lfingers 7.12502
lthumb 4.9293 21.4233
rfemur 4.70742 6.48493 20.7692
rtibia 45.162
rfoot 23.9389 -6.37801
rtoes 6.99558
lfemur -45.3449 6.17807 -20.1105
ltibia 40.7988
lfoot -6.92865 0.859129
ltoes -11.5931
40
root 9.19776 15.2455 -23.9425 9.37745 -8.19902 -0.543471
lowerback 0.950316 4.38833 -3.58851
upperback -3.00951 5.68574 -2.27912
thorax -3.75276 2.90063 -0.596741
lowerneck -12.7768 -2.93914 -1.83466
upperneck 13.1542 -4.59794 6.13813
head 6.28672 -1.82731 1.83326
rclavicle -2.70844e-014 1.19271e-014
rhumerus -43.0701 11.7116 -95.3148
rradius 69.9949
rwrist -18.154
rhand -16.2204 -51.4694
rfingers 7.12502
rthumb 9.98753 -81.2124
lclavicle -2.70844e-014 1.19271e-014
lhumerus -53.7729 22.1576 49.3823
lradius 4.77646
lwrist -31.0908
lhand -21.9478 -9.23127
lfingers 7.12502
lthumb 4.4592 20.7018
rfemur 3.06124 6.44126 20.389
rtibia 48.6552
rfoot 21.899 -7.23165
rtoes 6.89103
lfemur -44.1464 6.32178 -20.8453
ltibia 41.3462
lfoot -7.39362 0.122638
ltoes -7.98329
